<svg xmlns="http://www.w3.org/2000/svg" xmlns:xlink="http://www.w3.org/1999/xlink" width="1920" zoomAndPan="magnify" viewBox="0 0 1440 809.999993" height="1080" preserveAspectRatio="xMidYMid meet" version="1.0"><defs><clipPath id="3cbca81e51"><path d="M 388 142 L 1094.867188 142 L 1094.867188 776 L 388 776 Z M 388 142 " clip-rule="nonzero"/></clipPath></defs><path fill="#000000" d="M 600.566406 622.519531 C 607.394531 620.101562 614.390625 618.183594 621.5 616.785156 L 622.359375 619.9375 C 622.457031 620.308594 622.683594 620.636719 623 620.851562 C 623.3125 621.070312 623.699219 621.167969 624.082031 621.125 L 652.222656 617.847656 C 659.964844 600.195312 674.179688 573.445312 674.382812 573.035156 C 674.179688 566.359375 674.382812 560.746094 674.382812 554.355469 C 658.285156 560.335938 628.503906 571.683594 612.9375 578.933594 C 612.585938 579.160156 612.3125 579.492188 612.160156 579.882812 C 612.007812 580.269531 611.976562 580.699219 612.078125 581.105469 C 612.078125 581.105469 612.363281 582.128906 612.734375 583.605469 C 605.113281 583.605469 582.296875 582.496094 576.808594 587.699219 C 575.953125 588.886719 575.535156 590.335938 575.621094 591.796875 C 575.292969 597.449219 578.117188 641.363281 582.625 654.265625 C 584.960938 661.027344 589.875 660.289062 593.234375 653.816406 C 597.121094 644.070312 599.617188 633.824219 600.648438 623.378906 C 600.648438 622.847656 600.527344 622.886719 600.566406 622.519531 Z M 595.855469 585.855469 C 600.851562 585.445312 602.410156 585.527344 613.144531 585.199219 C 615.066406 592.492188 619.042969 607.484375 621.089844 615.144531 C 613.863281 616.265625 606.726562 617.921875 599.746094 620.101562 C 597.574219 608.804688 596.273438 597.355469 595.855469 585.855469 Z M 595.855469 585.855469 " fill-opacity="1" fill-rule="nonzero"/><path fill="#000000" d="M 977.601562 227.339844 C 978.625 225.90625 977.3125 224.0625 976.207031 222.628906 C 979.339844 219.40625 982.816406 216.535156 986.570312 214.066406 C 992.910156 210.90625 998.703125 206.757812 1003.734375 201.777344 C 1005.824219 199.605469 1009.757812 195.140625 1008.28125 192.519531 C 1006.808594 189.898438 1004.1875 189.734375 1000.621094 191.25 C 1002.167969 189.628906 1003.425781 187.757812 1004.351562 185.71875 C 1005.496094 182.523438 1002.792969 179.941406 996.933594 182.320312 C 999.066406 178.917969 999.558594 175.355469 995.953125 173.632812 C 993.042969 172.242188 988.785156 175.558594 986.324219 177.730469 C 981.5 181.949219 976.96875 186.492188 972.765625 191.332031 C 970.1875 185.921875 966.089844 179.695312 960.96875 181.664062 C 955.847656 183.628906 959.820312 192.4375 962.445312 197.230469 L 953.144531 203.660156 C 951.738281 202.902344 950.152344 202.546875 948.558594 202.636719 C 937.988281 204.441406 889.445312 241.390625 884.53125 241.390625 C 880.761719 241.390625 826.933594 215.582031 780.398438 208.125 C 780.308594 207.847656 780.144531 207.597656 779.917969 207.410156 C 779.691406 207.222656 779.421875 207.101562 779.128906 207.0625 C 771.011719 205.675781 762.78125 205.058594 754.550781 205.21875 C 754.300781 205.234375 754.058594 205.304688 753.839844 205.425781 C 753.617188 205.546875 753.429688 205.710938 753.28125 205.914062 L 749.839844 205.914062 C 749.019531 202.597656 745.988281 194.9375 744.925781 191.988281 C 747.710938 189.570312 751.558594 188.339844 753.566406 184.449219 C 757.253906 177.238281 757.089844 164.703125 756.066406 156.675781 C 760.695312 153.152344 760.820312 147.5 759.753906 141.722656 C 759.34375 139.386719 758.074219 134.105469 756.109375 132.792969 C 755 132.054688 752.667969 132.792969 750.660156 133.53125 C 748.652344 128.859375 748.652344 130.992188 749.472656 129.105469 C 749.851562 128.238281 750.074219 127.308594 750.125 126.363281 C 752.296875 127.015625 756.804688 122.675781 755.246094 116.941406 C 754.433594 114.886719 753.429688 112.914062 752.257812 111.042969 C 752.832031 109.648438 754.058594 107.96875 750.207031 102.847656 C 748.550781 101.058594 746.398438 99.804688 744.023438 99.242188 L 742.140625 99.242188 C 740.78125 97.269531 738.785156 95.824219 736.484375 95.148438 C 733.015625 94.261719 729.335938 94.777344 726.246094 96.582031 C 725.425781 97.195312 724.769531 98.015625 723.949219 98.589844 C 722.097656 97.464844 719.972656 96.867188 717.804688 96.867188 C 715.640625 96.867188 713.511719 97.464844 711.660156 98.589844 C 710.578125 99.015625 709.589844 99.652344 708.757812 100.46875 C 707.925781 101.289062 707.273438 102.261719 706.828125 103.339844 C 704.820312 102.648438 702.691406 102.382812 700.574219 102.558594 C 698.457031 102.734375 696.402344 103.347656 694.539062 104.363281 C 687.460938 108.203125 682.167969 114.65625 679.792969 122.347656 C 679.726562 123.507812 679.726562 124.667969 679.792969 125.828125 L 679.339844 125.828125 C 673.195312 124.929688 665.371094 139.511719 671.640625 150.859375 C 672.375 152.210938 673.320312 153.480469 674.21875 154.953125 C 676.84375 159.050781 675.816406 160.28125 681.675781 165.277344 C 683.394531 166.753906 683.683594 166.628906 684.746094 167.53125 C 685.8125 168.433594 685.402344 167.980469 686.019531 170.277344 C 686.351562 171.625 686.953125 172.898438 687.78125 174.015625 C 688.609375 175.132812 689.65625 176.078125 690.851562 176.789062 C 691.285156 180.796875 692.996094 184.558594 695.726562 187.519531 C 696.589844 188.488281 697.601562 189.316406 698.71875 189.980469 C 699.019531 190.148438 699.355469 190.246094 699.699219 190.265625 C 700.929688 197.886719 702.445312 207.796875 703.101562 212.019531 L 699.453125 213.984375 C 694.683594 215.902344 690.042969 218.132812 685.566406 220.660156 C 685.214844 220.90625 684.96875 221.269531 684.871094 221.683594 C 680.527344 223.980469 676.433594 226.152344 674.097656 227.542969 C 641.570312 246.835938 549.199219 374.03125 548.253906 379.847656 C 548.152344 380.183594 548.152344 380.539062 548.253906 380.871094 C 549.578125 382.984375 551.191406 384.902344 553.046875 386.566406 C 552.476562 387.609375 551.789062 388.582031 551 389.472656 C 542.808594 394.839844 530.519531 402.828125 523.921875 409.957031 C 523.460938 410.367188 523.113281 410.894531 522.914062 411.484375 C 522.71875 412.070312 522.679688 412.699219 522.796875 413.304688 C 522.917969 413.914062 523.195312 414.480469 523.601562 414.949219 C 524.003906 415.417969 524.527344 415.773438 525.109375 415.976562 C 526.339844 416.386719 526.542969 416.265625 534.53125 411.882812 C 532.335938 413.808594 530.542969 416.144531 529.246094 418.765625 C 528.714844 421.015625 530.765625 422.328125 533.34375 421.917969 C 534.796875 421.539062 536.179688 420.929688 537.441406 420.117188 C 536.703125 421.257812 536.308594 422.585938 536.308594 423.945312 C 536.308594 425.304688 536.703125 426.636719 537.441406 427.777344 C 541.539062 432.9375 552.269531 416.675781 557.921875 412.660156 C 560.21875 415.570312 563.332031 422.367188 568.285156 420.566406 C 572.589844 418.96875 567.878906 409.507812 568.285156 406.761719 C 569.953125 405.160156 571.734375 403.683594 573.613281 402.335938 C 576.773438 404.679688 580.386719 406.339844 584.222656 407.210938 C 590.980469 407.210938 661.519531 336.015625 666.886719 330.324219 C 664.960938 348.429688 655.253906 426.136719 657.300781 441.253906 C 658.246094 448.09375 674.671875 449.078125 681.59375 449.445312 C 679.503906 498.601562 678.113281 573.074219 677.742188 573.855469 C 666.886719 597.246094 663.9375 603.636719 660.292969 610.722656 C 653.65625 623.421875 625.71875 670.285156 622.566406 680.933594 C 622.113281 682.613281 622.074219 683.269531 623.835938 686.382812 C 618.554688 691.929688 613.65625 697.828125 609.167969 704.039062 C 606.917969 708.132812 616.582031 746.3125 623.425781 759.832031 C 624.980469 762.863281 627.519531 767.53125 630.921875 767.410156 C 641.164062 767.039062 641.121094 730.253906 640.835938 719.972656 C 640.832031 719.65625 640.714844 719.351562 640.507812 719.113281 C 642.363281 716.339844 644.386719 713.6875 646.570312 711.164062 C 647.871094 712.0625 649.242188 712.855469 650.664062 713.542969 C 652.058594 714.15625 653.617188 713.089844 654.761719 712.148438 C 668.402344 701.417969 741.976562 609.738281 757.746094 566.480469 C 764.914062 546.734375 774.460938 519.453125 777.164062 500.117188 C 778.816406 487.894531 778.96875 475.511719 777.613281 463.25 C 777.613281 463.078125 777.683594 462.910156 777.804688 462.789062 C 777.929688 462.664062 778.09375 462.59375 778.269531 462.59375 C 778.441406 462.59375 778.609375 462.664062 778.730469 462.789062 C 778.855469 462.910156 778.925781 463.078125 778.925781 463.25 C 780.976562 475.582031 781.375 488.132812 780.113281 500.570312 C 777.082031 527.402344 755.902344 583.316406 744.597656 603.878906 C 754.347656 602.078125 774.171875 598.144531 783.757812 595.277344 C 815.710938 585.570312 845.203125 556.609375 847.785156 524.082031 C 848.621094 508.761719 848.621094 493.402344 847.785156 478.078125 C 847.507812 456.925781 844.757812 435.878906 839.59375 415.363281 C 848.277344 410.652344 856.222656 405.121094 858.804688 400.042969 C 864.335938 389.1875 849.710938 326.71875 846.515625 309.183594 C 864.007812 311.109375 893.789062 314.59375 907.675781 303.738281 C 923.570312 290.957031 957.898438 254.988281 977.601562 227.339844 Z M 638.621094 717.71875 C 631.25 713.253906 620.925781 702.644531 619.371094 694.328125 C 621.046875 692.199219 622.808594 690.234375 624.449219 688.019531 C 630 696.492188 636.921875 703.984375 644.929688 710.183594 C 642.679688 712.570312 640.574219 715.085938 638.621094 717.71875 Z M 964.289062 198.375 C 964.5 198.242188 964.652344 198.03125 964.710938 197.785156 C 964.773438 197.542969 964.738281 197.285156 964.613281 197.066406 C 963.179688 194.402344 958.878906 185.023438 961.871094 183.957031 C 963.589844 183.300781 965.105469 184.367188 966.375 185.800781 C 968.316406 188.261719 969.824219 191.03125 970.839844 193.992188 C 970.917969 194.234375 971.054688 194.449219 971.246094 194.617188 C 971.433594 194.785156 971.667969 194.898438 971.914062 194.945312 C 972.164062 194.992188 972.417969 194.96875 972.65625 194.878906 C 972.890625 194.792969 973.101562 194.640625 973.257812 194.445312 C 977.355469 189.898438 986.941406 179.535156 992.347656 176.746094 C 996.445312 174.617188 997.425781 178.550781 987.390625 187.726562 C 985.085938 189.484375 982.871094 191.355469 980.753906 193.339844 C 980.636719 193.5 980.574219 193.691406 980.574219 193.890625 C 980.574219 194.089844 980.636719 194.285156 980.753906 194.445312 C 980.753906 195.507812 981.613281 196.695312 983.089844 195.589844 C 986.648438 192.464844 990.414062 189.578125 994.355469 186.949219 C 996.367188 185.519531 998.707031 184.617188 1001.15625 184.324219 C 999.925781 188.09375 988.496094 198.335938 987.515625 199.484375 C 987.203125 199.761719 987.011719 200.152344 986.984375 200.570312 C 986.957031 200.988281 987.097656 201.398438 987.371094 201.71875 C 987.644531 202.035156 988.03125 202.230469 988.449219 202.265625 C 988.867188 202.300781 989.28125 202.167969 989.601562 201.898438 C 994.148438 198.949219 1002.097656 192.066406 1004.839844 193.09375 C 1007.585938 194.117188 999.433594 201.734375 997.386719 203.539062 C 985.628906 213.738281 988.660156 207.183594 975.0625 221.03125 C 969.140625 214.546875 962.34375 208.917969 954.867188 204.316406 Z M 786.296875 394.308594 C 785.601562 388.65625 784.742188 382.550781 783.675781 376.203125 L 785.4375 373.867188 C 793.628906 363.339844 796.089844 346.585938 795.308594 333.4375 C 799.691406 352.648438 803.175781 371.53125 805.839844 390.292969 Z M 725.382812 254.046875 C 714.609375 245.855469 697.28125 231.722656 687.207031 222.054688 L 703.589844 213.859375 C 718.636719 227.914062 731.515625 244.121094 741.8125 261.953125 C 757.550781 290.867188 769.226562 321.8125 776.507812 353.917969 L 718.09375 271.292969 L 725.710938 255.480469 C 725.8125 255.238281 725.835938 254.96875 725.777344 254.710938 C 725.71875 254.453125 725.582031 254.222656 725.382812 254.046875 Z M 753.074219 207.59375 C 753.320312 208.042969 756.148438 214.066406 760.449219 224.59375 C 760.449219 225.042969 759.671875 235.285156 759.300781 238.890625 C 754.074219 236.816406 749.144531 234.0625 744.636719 230.699219 C 745.539062 227.132812 749.59375 210.953125 749.882812 207.308594 Z M 738.535156 251.589844 C 738.820312 250.851562 739.105469 249.867188 739.433594 248.722656 L 742.179688 250.15625 C 743.738281 251.179688 743.121094 248.066406 744.515625 257.078125 C 744.515625 258.59375 744.925781 260.273438 745.007812 262.117188 C 743.121094 258.71875 740.785156 255.070312 738.574219 251.589844 Z M 736.238281 248.148438 C 728.5 237.171875 719.691406 226.988281 709.941406 217.753906 L 740.785156 231.148438 C 739.597656 233.976562 737.878906 242.617188 736.28125 248.148438 Z M 767.742188 272.152344 C 763.644531 260.96875 760.492188 248.476562 758.933594 245.199219 C 759.027344 244.175781 759.027344 243.148438 758.933594 242.125 C 759.527344 242.347656 760.148438 242.484375 760.777344 242.535156 C 761.171875 242.539062 761.554688 242.402344 761.855469 242.148438 C 762.15625 241.890625 762.355469 241.535156 762.414062 241.144531 C 762.742188 239.792969 763.277344 232.949219 763.359375 231.433594 C 775.273438 261.519531 785.222656 292.351562 793.140625 323.726562 C 769.996094 274.488281 773.558594 288.742188 767.78125 272.152344 Z M 801.617188 350.355469 C 792.277344 305.582031 775.851562 249.746094 757.171875 208.371094 C 764.03125 208.375 770.882812 208.921875 777.65625 210.011719 C 781.136719 241.144531 778.226562 240.078125 780.5625 241.308594 C 782.898438 242.535156 796.949219 248.1875 799.039062 249.050781 C 798.832031 252.203125 801.78125 342.40625 801.660156 350.355469 Z M 754.46875 135.414062 C 756.601562 140.074219 757.355469 145.25 756.640625 150.324219 C 756.304688 151.617188 755.621094 152.792969 754.660156 153.71875 C 753.699219 154.640625 752.5 155.28125 751.195312 155.566406 C 749.894531 155.851562 748.535156 155.769531 747.277344 155.328125 C 746.019531 154.886719 744.90625 154.105469 744.0625 153.070312 C 742.109375 148.953125 740.636719 144.621094 739.679688 140.167969 C 740.785156 138.734375 752.585938 135.867188 754.46875 135.414062 Z M 698.101562 176.378906 C 696.605469 175.699219 695.074219 175.097656 693.515625 174.578125 C 692.46875 174.144531 691.53125 173.480469 690.78125 172.632812 C 690.03125 171.785156 689.484375 170.777344 689.183594 169.6875 C 688.882812 168.597656 688.835938 167.449219 689.046875 166.335938 C 689.257812 165.226562 689.722656 164.175781 690.402344 163.269531 C 692.980469 161.097656 695.316406 161.222656 697.445312 164.457031 C 698.796875 166.957031 698.757812 167.164062 699.371094 167.40625 C 699.546875 167.484375 699.738281 167.523438 699.929688 167.523438 C 700.125 167.519531 700.3125 167.476562 700.488281 167.394531 C 700.664062 167.316406 700.816406 167.195312 700.941406 167.050781 C 701.066406 166.902344 701.164062 166.734375 701.214844 166.546875 C 701.820312 163.984375 701.921875 161.324219 701.503906 158.722656 C 701.011719 155.898438 700.929688 143.363281 701.011719 142.953125 C 702.207031 143.582031 703.550781 143.878906 704.902344 143.8125 C 712.316406 143.527344 713.792969 139.714844 716.742188 136.601562 C 720.140625 136.929688 720.835938 138.570312 724.6875 136.601562 C 726.492188 135.578125 728.144531 134.308594 729.605469 132.835938 C 730.78125 133.316406 731.917969 133.890625 733.003906 134.554688 C 735.460938 135.734375 738.226562 136.097656 740.902344 135.589844 C 743.582031 135.082031 746.023438 133.726562 747.875 131.726562 C 748.324219 132.589844 748.734375 133.449219 749.101562 134.351562 C 745.339844 135.519531 741.792969 137.304688 738.617188 139.632812 C 737.917969 140.496094 738.945312 145.164062 739.1875 146.269531 C 735.757812 146.703125 732.4375 147.773438 729.398438 149.425781 C 728.785156 147.292969 727.433594 143.320312 725.300781 142.214844 C 724.660156 142.019531 723.976562 142.019531 723.335938 142.214844 C 719.648438 142.789062 706.417969 146.761719 704.820312 148.933594 C 703.425781 150.449219 707.402344 162.164062 708.628906 164.089844 C 713.339844 171.382812 727.144531 169.25 729.726562 160.730469 C 730.367188 157.871094 730.367188 154.90625 729.726562 152.046875 C 730.914062 152.046875 734.476562 150.777344 734.886719 150.652344 C 737.714844 157.003906 738.535156 157.371094 741.8125 164.210938 C 741.359375 164.582031 740.625 165.195312 740.007812 165.605469 C 737.101562 167.53125 736.484375 167.203125 736.648438 168.023438 C 736.695312 168.183594 736.804688 168.324219 736.945312 168.414062 C 737.089844 168.503906 737.261719 168.539062 737.429688 168.515625 C 739.144531 168.269531 740.828125 167.800781 742.425781 167.121094 C 743.382812 166.765625 744.171875 166.0625 744.636719 165.15625 C 745.785156 162.574219 739.433594 152.867188 736.9375 149.957031 C 737.429688 149.957031 738.574219 149.136719 739.433594 148.6875 C 740.582031 153.273438 741.359375 156.878906 745.785156 158.683594 C 747.0625 159.164062 748.425781 159.386719 749.789062 159.328125 C 751.15625 159.273438 752.496094 158.941406 753.730469 158.355469 C 754.386719 165.566406 754.265625 177.28125 750.824219 183.671875 C 749.0625 186.988281 744.71875 188.257812 741.933594 191.003906 C 741.113281 191.78125 741.648438 192.886719 741.933594 194.074219 C 746.480469 206.734375 746.5625 206.691406 746.316406 208.332031 C 745.109375 215.132812 743.425781 221.839844 741.277344 228.402344 C 740.253906 227.953125 728.742188 221.847656 706.214844 213.082031 C 705.515625 208.453125 701.789062 183.753906 700.601562 179.207031 C 700.683594 177.609375 700.476562 177.238281 698.101562 176.175781 Z M 726.777344 159.664062 C 725.464844 164.128906 719.28125 166.054688 714.855469 164.828125 C 710.433594 163.597656 710.144531 161.34375 708.054688 156.019531 C 707.078125 153.984375 706.402344 151.820312 706.050781 149.589844 C 707.402344 148.113281 722.1875 145.082031 724.03125 144.796875 C 726.617188 149.21875 727.589844 154.402344 726.777344 159.460938 Z M 566.484375 405.613281 C 564.929688 407.128906 567.015625 412.085938 567.34375 416.386719 C 567.34375 416.757812 567.34375 418.355469 567.097656 418.476562 C 564.847656 419.214844 562.757812 415.816406 561.488281 413.765625 C 560.21875 411.71875 558.945312 408.933594 556.941406 409.667969 C 552.84375 411.59375 543.339844 424.210938 539.613281 425.523438 C 537.726562 421.917969 548.5 411.636719 548.871094 411.0625 C 549.027344 410.796875 549.113281 410.496094 549.109375 410.191406 C 549.109375 409.882812 549.023438 409.582031 548.863281 409.320312 C 548.703125 409.058594 548.472656 408.847656 548.199219 408.707031 C 547.925781 408.5625 547.621094 408.503906 547.3125 408.523438 C 546.574219 408.523438 546.085938 409.179688 544.9375 410.203125 C 541.449219 413.605469 537.457031 416.453125 533.097656 418.640625 C 537.050781 414.109375 541.277344 409.828125 545.757812 405.820312 C 545.976562 405.59375 546.132812 405.308594 546.207031 405 C 546.207031 405 545.347656 402.828125 543.667969 403.6875 C 541.292969 405 529.738281 411.675781 526.09375 413.398438 C 525.601562 413.070312 525.890625 412.578125 526.09375 412.085938 C 531.871094 405 544.570312 396.398438 552.351562 390.949219 C 553.265625 390.007812 554.023438 388.929688 554.605469 387.753906 C 559.996094 392.769531 565.746094 397.382812 571.808594 401.558594 C 569.941406 402.785156 568.160156 404.140625 566.484375 405.613281 Z M 661.808594 442.851562 C 660.90625 442.277344 660.25 441.746094 660.128906 441.007812 C 657.875 424.292969 670.410156 329.585938 670.207031 325.855469 C 670.207031 325.636719 670.164062 325.421875 670.078125 325.21875 C 669.992188 325.019531 669.867188 324.835938 669.710938 324.683594 C 669.554688 324.53125 669.371094 324.410156 669.164062 324.332031 C 668.960938 324.25 668.746094 324.210938 668.527344 324.21875 C 666.4375 324.21875 670.125 324.21875 617.9375 374.195312 C 614.496094 377.429688 588.195312 402.582031 583.8125 404.261719 C 577.789062 403.8125 555.136719 385.746094 551.449219 380.054688 C 558.578125 365.632812 645.011719 247 674.917969 228.855469 C 677.210938 227.460938 681.144531 225.289062 685.445312 222.996094 C 686.929688 224.398438 688.535156 225.671875 690.238281 226.804688 C 699.742188 235.816406 712.972656 247.042969 723.007812 255.480469 L 715.183594 271.007812 C 715.066406 271.210938 715.003906 271.445312 715.003906 271.683594 C 715.003906 271.917969 715.066406 272.152344 715.183594 272.359375 C 778.71875 363.503906 777.777344 362.480469 778.1875 362.480469 C 782.257812 383.539062 784.792969 404.871094 785.765625 426.300781 C 785.765625 432.078125 785.765625 431.585938 786.011719 431.175781 C 786.257812 430.765625 786.011719 431.460938 786.011719 431.460938 C 776.097656 442.277344 677.988281 452.355469 661.808594 442.851562 Z M 888.257812 307.136719 C 869.699219 309.71875 848.726562 305.867188 844.671875 305.703125 C 842.417969 294.78125 837.925781 284.445312 831.480469 275.347656 C 831.382812 275.214844 831.238281 275.125 831.074219 275.09375 C 830.914062 275.0625 830.746094 275.097656 830.605469 275.183594 C 830.464844 275.273438 830.363281 275.410156 830.320312 275.570312 C 830.277344 275.730469 830.296875 275.898438 830.375 276.046875 C 832.75 280.878906 840.699219 301.730469 842.664062 306.808594 C 842.050781 308.773438 861.179688 387.878906 855.773438 398.527344 C 850.9375 408.152344 822.796875 420.28125 812.636719 423.761719 C 810.628906 400.957031 807.347656 378.28125 802.804688 355.84375 C 804.199219 344.046875 802.398438 273.914062 801.863281 247.984375 C 801.847656 247.683594 801.746094 247.394531 801.574219 247.148438 C 801.398438 246.898438 801.160156 246.707031 800.882812 246.589844 L 782.488281 238.847656 C 782.40625 229.113281 781.789062 219.390625 780.644531 209.722656 C 826.566406 217.671875 880.066406 243.929688 884.53125 243.96875 C 891.003906 243.96875 939.09375 207.101562 949.046875 205.628906 C 953.472656 204.929688 972.480469 221.523438 974.691406 226.109375 C 955.273438 253.226562 921.152344 288.867188 905.339844 301.195312 C 900.246094 304.601562 894.367188 306.648438 888.257812 307.136719 Z M 888.257812 307.136719 " fill-opacity="1" fill-rule="nonzero"/><path fill="#000000" d="M 722.558594 151.472656 C 722.507812 151.203125 722.402344 150.949219 722.253906 150.71875 C 722.101562 150.488281 721.910156 150.292969 721.683594 150.140625 C 721.457031 149.984375 721.203125 149.875 720.933594 149.820312 C 720.664062 149.765625 720.390625 149.761719 720.121094 149.8125 C 719.851562 149.863281 719.597656 149.96875 719.367188 150.117188 C 719.136719 150.269531 718.941406 150.460938 718.789062 150.6875 C 718.632812 150.914062 718.523438 151.167969 718.46875 151.4375 C 718.414062 151.707031 718.410156 151.980469 718.460938 152.25 C 719.28125 156.347656 719.445312 157.289062 721.246094 157.289062 C 721.585938 157.289062 721.921875 157.207031 722.222656 157.046875 C 722.523438 156.886719 722.777344 156.652344 722.964844 156.367188 C 723.152344 156.082031 723.265625 155.753906 723.296875 155.414062 C 723.324219 155.074219 723.269531 154.734375 723.132812 154.421875 C 723.007812 153.765625 722.640625 151.839844 722.558594 151.472656 Z M 735.09375 178.589844 C 737.753906 179.371094 740.296875 178.101562 740.214844 177.445312 C 740.132812 176.789062 740.214844 177.117188 736.609375 175.765625 C 734.191406 174.863281 731.527344 171.667969 730.585938 172.160156 C 729.644531 172.652344 731.078125 175.273438 731.40625 175.765625 C 732.28125 177.09375 733.582031 178.089844 735.09375 178.589844 Z M 810.015625 139.675781 C 804.648438 162.164062 800.71875 181.253906 800.0625 185.0625 C 799.628906 186.722656 799.542969 188.453125 799.816406 190.144531 C 801.988281 194.773438 830.046875 203.90625 833.613281 202.105469 C 837.175781 200.300781 846.433594 179.453125 857.207031 157.945312 C 863.804688 158.15625 870.410156 157.675781 876.910156 156.511719 C 883.753906 155.257812 890.414062 153.152344 896.738281 150.246094 C 910.582031 143.855469 925.738281 116.488281 927.789062 102.726562 C 929.324219 87.78125 926.160156 72.730469 918.734375 59.671875 C 884.367188 0.0703125 783.554688 32.144531 791.746094 98.34375 C 794.085938 113.488281 800.390625 127.75 810.015625 139.675781 Z M 835.003906 188.464844 C 835.003906 189.117188 834.265625 189.039062 830.90625 188.464844 C 824.039062 187.601562 817.386719 185.476562 811.285156 182.195312 C 808.417969 180.640625 807.640625 180.3125 807.925781 179.617188 C 808.214844 178.917969 808.828125 179.164062 813.253906 180.394531 C 813.660156 180.394531 826.359375 184.488281 830.007812 185.761719 C 834.71875 187.890625 835.003906 187.890625 835.003906 188.464844 Z M 834.265625 121.816406 C 838.640625 122.042969 843 121.140625 846.925781 119.191406 C 850.574219 120.960938 854.519531 122.03125 858.558594 122.347656 C 851.675781 135.167969 837.707031 161.304688 833.203125 175.230469 L 815.832031 170.441406 C 819.929688 160.363281 828.984375 136.765625 834.183594 121.816406 Z M 832.832031 118.414062 C 829.773438 117.953125 826.953125 116.5 824.800781 114.28125 C 822.648438 112.0625 821.28125 109.195312 820.914062 106.125 C 819.765625 97.933594 825.007812 88.757812 832.914062 90.929688 C 837.871094 92.28125 838.488281 96.210938 837.625 101.167969 C 836.890625 104.773438 834.226562 113.828125 832.75 118.25 Z M 843.976562 108.582031 C 844.414062 105.902344 845.417969 103.347656 846.925781 101.085938 C 847.640625 99.855469 848.691406 98.847656 849.949219 98.183594 C 851.210938 97.515625 852.632812 97.21875 854.050781 97.316406 C 857.085938 98.21875 858.394531 103.953125 855.894531 107.558594 C 853.496094 110.746094 850.503906 113.445312 847.089844 115.507812 C 845.914062 114.816406 844.976562 113.785156 844.40625 112.546875 C 843.835938 111.308594 843.65625 109.925781 843.894531 108.582031 Z M 806.328125 56.519531 C 824.679688 34.4375 859.214844 25.671875 884.160156 34.765625 C 897.714844 39.417969 909.113281 48.835938 916.234375 61.269531 C 923.296875 73.695312 926.320312 88.011719 924.878906 102.234375 C 922.996094 114.972656 908.492188 141.4375 895.753906 147.292969 C 884.105469 152.609375 871.398438 155.1875 858.601562 154.832031 C 857.207031 154.832031 855.730469 154.832031 855.199219 155.816406 C 852.78125 160.730469 848.359375 170.234375 844.015625 179.164062 C 841.019531 177.71875 837.910156 176.511719 834.71875 175.558594 C 839.46875 161.960938 854.460938 135.25 861.589844 122.304688 C 867.765625 122.835938 873.972656 121.761719 879.613281 119.191406 C 881.136719 118.390625 882.402344 117.171875 883.257812 115.675781 C 884.113281 114.179688 884.523438 112.472656 884.441406 110.753906 C 884.359375 109.03125 883.789062 107.371094 882.796875 105.964844 C 881.800781 104.558594 880.429688 103.460938 878.835938 102.808594 C 872.488281 99.695312 866.792969 107.148438 863.472656 113.417969 C 862.574219 115.054688 861.550781 116.980469 860.402344 119.152344 C 857.089844 118.933594 853.820312 118.257812 850.695312 117.144531 C 853.808594 114.957031 856.570312 112.304688 858.886719 109.28125 C 860.183594 107.320312 860.839844 105.007812 860.765625 102.660156 C 860.691406 100.3125 859.894531 98.046875 858.476562 96.171875 C 857.363281 94.878906 855.816406 94.035156 854.128906 93.804688 C 852.4375 93.570312 850.722656 93.960938 849.300781 94.902344 C 846.429688 96.664062 844.132812 99.21875 842.679688 102.253906 C 841.226562 105.292969 840.679688 108.683594 841.109375 112.023438 C 841.550781 113.910156 842.570312 115.613281 844.015625 116.898438 C 841.328125 118.011719 838.445312 118.570312 835.535156 118.539062 C 837.175781 113.703125 839.839844 104.980469 840.535156 101.414062 C 840.972656 99.382812 841.070312 97.292969 840.820312 95.230469 C 840.503906 93.457031 839.683594 91.816406 838.453125 90.5 C 837.226562 89.183594 835.644531 88.253906 833.898438 87.816406 C 823.945312 84.988281 816.613281 96.007812 818.046875 106.289062 C 818.449219 109.972656 820.03125 113.429688 822.554688 116.144531 C 825.078125 118.859375 828.410156 120.691406 832.054688 121.363281 C 826.8125 136.113281 818.617188 159.910156 814.523438 170.070312 L 805.511719 167.734375 C 811.285156 138.734375 811.984375 139.429688 811.164062 139.0625 C 801.855469 127.195312 795.898438 113.046875 793.917969 98.097656 C 792.953125 90.683594 793.558594 83.148438 795.699219 75.984375 C 797.835938 68.820312 801.457031 62.1875 806.328125 56.519531 Z M 863.1875 119.398438 C 866.054688 114.195312 871.789062 102.808594 877.359375 105.59375 C 878.476562 106.042969 879.445312 106.785156 880.167969 107.746094 C 880.890625 108.707031 881.335938 109.847656 881.457031 111.042969 C 881.375 118.25 870.152344 119.519531 863.023438 119.398438 Z M 1020 137.464844 C 1024.933594 134.558594 1030.765625 133.570312 1036.382812 134.679688 C 1042.554688 134.789062 1048.453125 137.257812 1052.863281 141.574219 C 1057.273438 145.894531 1059.863281 151.734375 1060.101562 157.90625 C 1056.390625 155.75 1052.050781 154.941406 1047.8125 155.609375 C 1037.53125 156.511719 1024.09375 162.082031 1025.898438 171.996094 C 1027.371094 180.1875 1038.1875 179.082031 1046.378906 176.871094 C 1054.570312 174.660156 1061.085938 170.644531 1062.765625 162.738281 C 1072.71875 169.988281 1075.054688 182.6875 1075.464844 195.101562 C 1075.464844 195.273438 1075.535156 195.441406 1075.65625 195.5625 C 1075.777344 195.6875 1075.945312 195.753906 1076.121094 195.753906 C 1076.292969 195.753906 1076.460938 195.6875 1076.582031 195.5625 C 1076.703125 195.441406 1076.773438 195.273438 1076.773438 195.101562 C 1077.0625 181.214844 1074.5625 167.613281 1063.214844 159.707031 C 1063.332031 156.148438 1062.726562 152.605469 1061.433594 149.292969 C 1060.140625 145.976562 1058.1875 142.957031 1055.695312 140.417969 C 1053.203125 137.878906 1050.21875 135.871094 1046.929688 134.519531 C 1043.636719 133.167969 1040.105469 132.496094 1036.546875 132.546875 C 1030.863281 131.71875 1025.0625 132.90625 1020.164062 135.90625 C 1018.648438 136.644531 1019.34375 137.75 1020 137.464844 Z M 1057.359375 166.835938 C 1052.730469 172.898438 1039.621094 176.050781 1033.558594 175.027344 C 1031.304688 174.660156 1029.460938 173.714844 1028.96875 171.382812 C 1027.496094 163.1875 1041.628906 158.722656 1050.066406 158.4375 C 1053.503906 158.171875 1056.929688 159.050781 1059.816406 160.9375 C 1059.507812 163.078125 1058.660156 165.105469 1057.359375 166.835938 Z M 1001.238281 89.578125 C 1005.621094 84.167969 1002.671875 74.746094 990.421875 74.707031 C 985.671875 74.707031 983.375 79.539062 983.703125 84.167969 C 984.441406 95.1875 996.855469 94.859375 1001.238281 89.578125 Z M 986.570312 83.964844 C 986.570312 81.261719 987.839844 77.738281 990.667969 77.777344 C 997.261719 77.777344 1000.292969 80.851562 1000.292969 84.25 C 1000.128906 91.992188 986.039062 96.007812 986.570312 83.964844 Z M 984.890625 548.375 C 948.882812 533.996094 932.171875 603.59375 902.757812 663.402344 C 902.574219 665.914062 902.65625 668.441406 903.003906 670.9375 C 903.003906 677.207031 903.703125 718.703125 907.347656 723.414062 C 908.332031 725.296875 912.46875 723.414062 914.394531 722.226562 C 930.746094 712.105469 946.15625 700.53125 960.4375 687.652344 C 960.558594 687.511719 960.648438 687.351562 960.707031 687.175781 C 960.761719 687 960.78125 686.8125 960.765625 686.628906 C 968.382812 675.773438 996.933594 619.242188 1003.859375 590.894531 C 1008.691406 570.824219 1003.898438 555.871094 984.890625 548.375 Z M 997.753906 600.398438 C 978.476562 597.929688 959.839844 591.839844 942.820312 582.457031 C 952.40625 564.308594 964.246094 543.621094 983.785156 551.40625 C 1005.539062 560.050781 1005.085938 577.949219 997.753906 600.277344 Z M 929.589844 706.90625 C 928.332031 705.851562 926.957031 704.941406 925.492188 704.203125 C 919.957031 701.386719 913.5625 700.773438 907.59375 702.480469 C 907.183594 697.605469 904.847656 665.902344 904.847656 665.613281 C 935.53125 676.835938 926.066406 671.964844 956.464844 687.078125 C 953.269531 690.109375 941.265625 698.507812 929.589844 706.824219 Z M 950.726562 588.355469 C 954.722656 590.539062 958.824219 592.519531 963.015625 594.296875 C 953.628906 609.042969 945.332031 624.460938 938.191406 640.421875 C 931.3125 654.800781 931.558594 654.71875 924.550781 670.40625 C 920.457031 669.09375 916.359375 667.867188 912.261719 666.636719 C 916.6875 657.832031 948.148438 593.433594 950.726562 588.273438 Z M 926.148438 670.816406 C 939.460938 646.933594 953.023438 617.234375 964.65625 594.828125 C 968.753906 596.546875 972.847656 597.941406 976.945312 599.167969 C 974.773438 603.265625 968.425781 614.164062 966.746094 617.316406 C 965.066406 620.472656 948.230469 653.652344 947.042969 656.191406 C 945.15625 660.289062 939.996094 671.71875 938.398438 675.363281 C 934.21875 673.519531 930.203125 672.128906 925.984375 670.734375 Z M 939.871094 675.894531 C 942.371094 671.347656 952.652344 652.257812 953.921875 649.800781 C 955.847656 645.992188 977.3125 602.121094 978.5 599.578125 C 982.269531 600.644531 986.242188 601.546875 988.785156 602.039062 C 981.289062 622.519531 959.699219 661.96875 951.914062 681.425781 C 944.828125 678.109375 943.230469 677.289062 939.707031 675.8125 Z M 942.371094 583.644531 L 949.703125 587.742188 C 934.925781 612.90625 922.054688 639.140625 911.199219 666.226562 L 905.054688 664.34375 C 928.851562 613.628906 929.960938 606.992188 942.207031 583.5625 Z M 959.25 684.988281 L 953.0625 682.039062 C 959.738281 668.933594 980.632812 635.300781 990.175781 602.324219 C 992.46875 602.734375 994.722656 603.101562 996.894531 603.390625 C 986.367188 631.476562 973.726562 658.726562 959.085938 684.90625 Z M 830.90625 711.574219 C 832.539062 710.222656 833.707031 708.390625 834.246094 706.34375 C 834.78125 704.292969 834.660156 702.125 833.898438 700.144531 C 833.550781 697.292969 832.242188 694.640625 830.1875 692.628906 C 828.132812 690.617188 825.453125 689.367188 822.59375 689.082031 C 819.730469 688.796875 816.859375 689.492188 814.445312 691.054688 C 812.035156 692.621094 810.226562 694.960938 809.320312 697.6875 C 804.078125 694.289062 798.382812 690.683594 792.933594 687.242188 C 797.03125 681.792969 809.074219 684.210938 810.304688 688.675781 C 810.328125 688.851562 810.425781 689.007812 810.566406 689.109375 C 810.707031 689.214844 810.886719 689.257812 811.0625 689.230469 C 811.234375 689.203125 811.390625 689.105469 811.496094 688.964844 C 811.597656 688.820312 811.640625 688.644531 811.613281 688.472656 C 811 681.34375 796.171875 677.164062 790.191406 685.5625 C 784.90625 682.328125 778.351562 678.394531 772.863281 675.402344 C 777.574219 671.308594 788.101562 673.601562 789.246094 677.863281 C 789.300781 678.007812 789.40625 678.128906 789.539062 678.207031 C 789.675781 678.28125 789.832031 678.308594 789.988281 678.277344 C 790.136719 678.25 790.277344 678.164062 790.375 678.042969 C 790.46875 677.921875 790.519531 677.773438 790.515625 677.617188 C 789.984375 670.980469 776.261719 666.515625 770.035156 673.804688 C 767.425781 672.34375 764.683594 671.136719 761.84375 670.203125 C 761.324219 669.988281 760.753906 669.925781 760.203125 670.027344 C 759.648438 670.128906 759.136719 670.386719 758.730469 670.773438 C 748.367188 683.679688 713.421875 717.1875 697.28125 721.078125 C 696.878906 721.140625 696.496094 721.304688 696.175781 721.5625 C 695.851562 721.820312 695.605469 722.15625 695.457031 722.539062 C 695.304688 722.917969 695.261719 723.335938 695.324219 723.738281 C 695.382812 724.144531 695.550781 724.527344 695.808594 724.847656 C 699.351562 728.445312 703.410156 731.496094 707.851562 733.902344 C 703.753906 737.996094 700.558594 741.683594 698.183594 744.347656 C 696.957031 745.65625 696.300781 770.726562 697.363281 776.257812 C 697.523438 776.796875 697.871094 777.265625 698.347656 777.570312 C 703.507812 781.089844 769.996094 809.847656 776.792969 805.996094 C 781.339844 803.417969 835.617188 746.925781 836.480469 745.207031 C 837.789062 742.503906 837.339844 724.480469 837.257812 717.269531 C 836.929688 715.097656 832.875 712.761719 830.90625 711.574219 Z M 699.824219 765.6875 L 699.824219 756.554688 C 716.824219 764.746094 755.738281 781.460938 770.484375 786.128906 C 774.253906 787.359375 774.582031 787.195312 776.546875 786.128906 C 787.8125 778.921875 827.589844 734.105469 834.882812 727.265625 L 834.882812 735.90625 C 812.761719 758.070312 775.195312 796.902344 774.5 794.691406 C 770.445312 794.445312 703.347656 767.328125 699.824219 765.6875 Z M 829.882812 697.769531 C 831.355469 700.25 832.148438 703.078125 832.179688 705.964844 C 832.164062 706.882812 831.9375 707.785156 831.519531 708.601562 C 831.101562 709.417969 830.5 710.128906 829.761719 710.675781 C 826.320312 708.378906 819.808594 704.121094 812.105469 699.121094 C 816.324219 690.808594 825.707031 690.683594 829.71875 697.769531 Z M 698.796875 723.988281 C 716.25 718.824219 749.390625 686.875 760.53125 673.027344 C 763.210938 673.773438 765.796875 674.832031 768.234375 676.183594 C 764.136719 683.800781 768.519531 692.160156 770.078125 690.96875 C 770.9375 690.316406 769.378906 690.070312 769.132812 686.054688 C 769.03125 683.121094 769.691406 680.214844 771.058594 677.617188 C 776.710938 680.566406 783.347656 684.417969 788.960938 687.652344 C 785.519531 695.3125 789.65625 702.890625 791.089844 701.785156 C 792.523438 700.679688 790.433594 700.925781 790.191406 696.910156 C 790.089844 694.277344 790.59375 691.65625 791.664062 689.25 C 797.441406 692.648438 803.339844 696.171875 808.746094 699.492188 C 807.914062 701.53125 807.582031 703.742188 807.78125 705.9375 C 807.984375 708.132812 808.707031 710.25 809.894531 712.109375 C 809.945312 712.175781 810.015625 712.238281 810.089844 712.28125 C 810.167969 712.324219 810.25 712.355469 810.339844 712.363281 C 810.425781 712.375 810.515625 712.371094 810.601562 712.347656 C 810.6875 712.324219 810.765625 712.285156 810.835938 712.230469 C 810.90625 712.175781 810.964844 712.109375 811.007812 712.035156 C 811.050781 711.957031 811.082031 711.871094 811.089844 711.785156 C 811.105469 711.699219 811.097656 711.609375 811.074219 711.523438 C 811.050781 711.4375 811.011719 711.359375 810.957031 711.289062 C 810.222656 709.660156 809.859375 707.890625 809.894531 706.105469 C 809.929688 704.320312 810.363281 702.5625 811.164062 700.964844 C 820.707031 706.78125 828.410156 711.65625 830.785156 713.253906 C 830.335938 713.664062 787.609375 751.679688 773.066406 762.984375 C 763.523438 760.488281 713.421875 735.621094 698.796875 723.988281 Z M 700.355469 746.804688 C 718.914062 754.996094 761.0625 774.003906 770.773438 775.847656 C 772.453125 776.175781 773.109375 776.296875 776.304688 773.757812 C 789.945312 762.820312 834.308594 716.410156 834.71875 716.902344 C 834.738281 717.023438 834.738281 717.148438 834.71875 717.269531 L 834.71875 725.460938 C 825.582031 732.792969 774.789062 786.128906 773.96875 783.589844 C 769.871094 783.589844 703.304688 756.429688 699.90625 754.914062 C 699.824219 753.195312 700.191406 748.605469 700.355469 746.804688 Z M 774.949219 803.253906 C 770.855469 805.589844 708.464844 780.230469 700.109375 775.070312 C 699.796875 772.460938 699.644531 769.832031 699.660156 767.203125 C 717.601562 776.054688 769.789062 798.089844 774.582031 797.886719 C 781.585938 797.519531 831.113281 741.765625 834.636719 737.875 C 834.675781 739.96875 834.46875 742.058594 834.019531 744.101562 C 833.324219 745.453125 777.65625 801.738281 774.949219 803.253906 Z M 435.5625 572.339844 C 435.851562 576.722656 436.054688 580.53125 436.054688 584.09375 C 436.054688 584.636719 436.269531 585.15625 436.65625 585.542969 C 437.039062 585.929688 437.558594 586.144531 438.101562 586.144531 C 438.644531 586.144531 439.167969 585.929688 439.550781 585.542969 C 439.9375 585.15625 440.152344 584.636719 440.152344 584.09375 C 440.152344 580.285156 439.945312 576.515625 439.660156 572.050781 C 439.621094 571.507812 439.371094 571.003906 438.957031 570.644531 C 438.546875 570.289062 438.011719 570.109375 437.46875 570.148438 C 436.925781 570.1875 436.417969 570.4375 436.0625 570.847656 C 435.703125 571.257812 435.523438 571.796875 435.5625 572.339844 Z M 1059.734375 490.207031 C 1059.464844 490.222656 1059.207031 490.289062 1058.964844 490.40625 C 1058.722656 490.527344 1058.507812 490.691406 1058.332031 490.894531 C 1058.160156 491.097656 1058.023438 491.332031 1057.941406 491.585938 C 1057.855469 491.839844 1057.828125 492.109375 1057.847656 492.375 C 1058.09375 496.144531 1058.339844 500.199219 1058.339844 504.132812 C 1058.339844 504.675781 1058.554688 505.199219 1058.941406 505.582031 C 1059.324219 505.964844 1059.847656 506.179688 1060.390625 506.179688 C 1060.933594 506.179688 1061.453125 505.964844 1061.835938 505.582031 C 1062.222656 505.199219 1062.4375 504.675781 1062.4375 504.132812 C 1062.4375 500.035156 1062.191406 495.941406 1061.90625 492.089844 C 1061.886719 491.820312 1061.820312 491.5625 1061.703125 491.320312 C 1061.582031 491.078125 1061.417969 490.863281 1061.214844 490.6875 C 1061.011719 490.515625 1060.777344 490.382812 1060.523438 490.296875 C 1060.269531 490.214844 1060 490.183594 1059.734375 490.207031 Z M 424.953125 562.136719 C 425.496094 562.136719 426.019531 561.921875 426.402344 561.539062 C 426.785156 561.152344 427 560.632812 427 560.089844 C 427 559.546875 426.785156 559.023438 426.402344 558.640625 C 426.019531 558.257812 425.496094 558.042969 424.953125 558.042969 C 419.996094 558.042969 415.859375 558.410156 411.761719 558.328125 C 411.214844 558.328125 410.691406 558.542969 410.300781 558.925781 C 409.910156 559.308594 409.683594 559.828125 409.675781 560.375 C 409.675781 560.917969 409.890625 561.441406 410.273438 561.824219 C 410.65625 562.210938 411.179688 562.425781 411.722656 562.425781 C 415.941406 562.507812 420.570312 562.34375 424.953125 562.136719 Z M 1047.035156 478.078125 C 1042.117188 478.078125 1037.980469 478.367188 1033.84375 478.40625 C 1033.300781 478.40625 1032.777344 478.621094 1032.394531 479.007812 C 1032.011719 479.390625 1031.796875 479.914062 1031.796875 480.457031 C 1031.796875 481 1032.011719 481.519531 1032.394531 481.902344 C 1032.777344 482.289062 1033.300781 482.503906 1033.84375 482.503906 C 1038.269531 482.503906 1042.855469 482.503906 1047.28125 482.175781 C 1047.824219 482.144531 1048.332031 481.894531 1048.695312 481.492188 C 1049.054688 481.082031 1049.238281 480.546875 1049.207031 480.003906 C 1049.171875 479.460938 1048.925781 478.953125 1048.519531 478.59375 C 1048.113281 478.230469 1047.578125 478.046875 1047.035156 478.078125 Z M 434.457031 536.824219 C 434.703125 540.589844 434.949219 544.648438 434.949219 548.578125 C 434.960938 549.121094 435.179688 549.632812 435.558594 550.015625 C 435.941406 550.398438 436.457031 550.617188 436.996094 550.628906 C 437.539062 550.628906 438.0625 550.414062 438.445312 550.027344 C 438.828125 549.644531 439.046875 549.121094 439.046875 548.578125 C 439.046875 544.484375 438.800781 540.386719 438.554688 536.535156 C 438.515625 535.992188 438.261719 535.488281 437.851562 535.128906 C 437.441406 534.773438 436.90625 534.59375 436.363281 534.632812 C 435.820312 534.667969 435.3125 534.921875 434.957031 535.332031 C 434.597656 535.742188 434.417969 536.28125 434.457031 536.824219 Z M 1061.332031 468.617188 C 1061.332031 464.519531 1061.085938 460.425781 1060.796875 456.574219 C 1060.757812 456.03125 1060.507812 455.523438 1060.097656 455.167969 C 1059.6875 454.808594 1059.148438 454.628906 1058.605469 454.667969 C 1058.0625 454.707031 1057.558594 454.960938 1057.199219 455.371094 C 1056.84375 455.78125 1056.664062 456.316406 1056.703125 456.859375 C 1056.949219 460.628906 1057.195312 464.683594 1057.195312 468.617188 C 1057.195312 469.160156 1057.410156 469.683594 1057.792969 470.066406 C 1058.175781 470.449219 1058.699219 470.664062 1059.242188 470.664062 C 1059.789062 470.664062 1060.316406 470.449219 1060.703125 470.066406 C 1061.09375 469.683594 1061.320312 469.164062 1061.332031 468.617188 Z M 464.6875 561.605469 C 464.957031 561.59375 465.222656 561.53125 465.464844 561.417969 C 465.710938 561.308594 465.929688 561.148438 466.113281 560.949219 C 466.296875 560.75 466.4375 560.519531 466.53125 560.265625 C 466.625 560.011719 466.667969 559.742188 466.65625 559.476562 C 466.613281 558.9375 466.371094 558.4375 465.976562 558.074219 C 465.582031 557.710938 465.0625 557.507812 464.523438 557.507812 C 459.566406 557.714844 455.429688 557.878906 451.292969 557.796875 C 450.75 557.796875 450.230469 558.011719 449.84375 558.394531 C 449.460938 558.777344 449.246094 559.300781 449.246094 559.84375 C 449.246094 560.386719 449.460938 560.910156 449.84375 561.292969 C 450.230469 561.675781 450.75 561.890625 451.292969 561.890625 C 455.675781 561.972656 460.265625 561.8125 464.6875 561.605469 Z M 1086.769531 477.546875 C 1082.671875 477.753906 1078.125 477.875 1073.578125 477.875 C 1073.308594 477.863281 1073.039062 477.90625 1072.785156 478.003906 C 1072.53125 478.101562 1072.300781 478.246094 1072.105469 478.433594 C 1071.914062 478.621094 1071.757812 478.847656 1071.648438 479.09375 C 1071.546875 479.34375 1071.488281 479.613281 1071.488281 479.882812 C 1071.488281 480.429688 1071.707031 480.953125 1072.089844 481.34375 C 1072.472656 481.734375 1072.992188 481.960938 1073.539062 481.972656 C 1078.207031 481.972656 1081.976562 481.972656 1086.933594 481.644531 C 1087.203125 481.632812 1087.464844 481.570312 1087.710938 481.457031 C 1087.957031 481.34375 1088.175781 481.183594 1088.359375 480.988281 C 1088.542969 480.789062 1088.683594 480.554688 1088.773438 480.304688 C 1088.871094 480.050781 1088.910156 479.78125 1088.898438 479.515625 C 1088.847656 478.980469 1088.605469 478.484375 1088.210938 478.121094 C 1087.820312 477.761719 1087.304688 477.554688 1086.769531 477.546875 Z M 370.554688 440.230469 C 371.085938 440.640625 486.605469 423.515625 491.5625 420.484375 C 491.835938 420.285156 492.054688 420.015625 492.199219 419.710938 C 492.339844 419.402344 492.402344 419.0625 492.378906 418.722656 C 492.378906 413.4375 485.457031 363.832031 482.140625 351.460938 C 481.730469 349.945312 481.320312 348.429688 480.378906 347.894531 C 474.109375 344.128906 363.671875 364.9375 357.074219 369.199219 C 356.898438 369.304688 356.742188 369.445312 356.621094 369.613281 C 356.503906 369.78125 356.421875 369.976562 356.378906 370.179688 C 354.988281 375.136719 366.988281 437.769531 370.554688 440.230469 Z M 358.878906 371.164062 C 366.742188 367.601562 466.984375 349.246094 478.453125 350.679688 C 481.238281 357.851562 488.695312 410.367188 489.183594 418.066406 C 483.492188 419.746094 372.109375 438.878906 371.699219 438.960938 C 371.289062 439.042969 371.25 439.53125 370.390625 436.953125 C 366.785156 426.136719 358.671875 380.421875 358.878906 371.164062 Z M 358.878906 371.164062 " fill-opacity="1" fill-rule="nonzero"/><path fill="#000000" d="M 500.574219 424.128906 C 500.796875 423.714844 500.894531 423.246094 500.859375 422.777344 C 500.859375 416.265625 491.519531 343.964844 488.203125 338.1875 C 487.941406 337.761719 487.574219 337.410156 487.136719 337.175781 C 486.695312 336.9375 486.203125 336.820312 485.703125 336.835938 C 471.980469 335.15625 356.214844 357.769531 348.597656 363.054688 C 347.53125 363.789062 347.695312 365.632812 347.816406 367.601562 C 348.472656 378.375 360.105469 449.242188 364.203125 448.832031 C 364.652344 448.832031 364.492188 448.503906 363.425781 450.675781 C 357.035156 463.824219 344.910156 505.9375 345.15625 514.414062 C 345.15625 517.980469 345.976562 522.609375 349.496094 522.363281 C 374.773438 519.25 498.6875 499.585938 534.328125 492.253906 C 535.71875 491.96875 536.621094 490.695312 536.582031 488.609375 C 536.160156 485.128906 535.105469 481.753906 533.46875 478.652344 C 528.46875 469.273438 507.742188 432.117188 500.574219 424.128906 Z M 364.449219 447.5625 C 361.253906 443.464844 349.496094 372.882812 350.398438 365.058594 C 359.410156 360.390625 473.617188 338.308594 485.582031 340.113281 C 488.855469 349.125 497.335938 414.21875 497.871094 422.042969 C 483.367188 427.039062 382.964844 443.261719 364.449219 447.5625 Z M 366.25 448.789062 C 369.691406 447.929688 486.890625 428.308594 497.625 425.480469 C 503.480469 430.929688 529.945312 477.996094 531.664062 482.011719 C 508.152344 486.109375 368.667969 509.417969 348.144531 512.53125 C 348.433594 500.117188 361.171875 456.738281 366.25 448.789062 Z M 366.25 448.789062 " fill-opacity="1" fill-rule="nonzero"/><path fill="#000000" d="M 381.65625 491.269531 C 385.21875 490.738281 460.839844 481.644531 488.160156 474.230469 C 488.328125 474.1875 488.472656 474.078125 488.5625 473.929688 C 488.652344 473.777344 488.675781 473.597656 488.632812 473.429688 C 488.589844 473.261719 488.480469 473.117188 488.332031 473.027344 C 488.179688 472.941406 488 472.917969 487.832031 472.960938 C 482.46875 474.066406 417.007812 482.789062 381.574219 490 C 381.476562 489.980469 381.375 489.988281 381.277344 490.015625 C 381.183594 490.042969 381.09375 490.089844 381.019531 490.15625 C 380.945312 490.222656 380.886719 490.304688 380.851562 490.398438 C 380.8125 490.488281 380.796875 490.589844 380.800781 490.6875 C 380.808594 490.785156 380.835938 490.882812 380.886719 490.96875 C 380.9375 491.058594 381.003906 491.132812 381.085938 491.1875 C 381.167969 491.242188 381.261719 491.277344 381.359375 491.296875 C 381.460938 491.308594 381.558594 491.300781 381.65625 491.269531 Z M 436.914062 206.242188 C 435.382812 209.699219 434.097656 213.257812 433.066406 216.894531 C 433.003906 217.476562 433.164062 218.0625 433.515625 218.53125 C 437.652344 224.757812 480.050781 272.5625 491.109375 279.28125 C 492.625 280.222656 494.429688 280.878906 495.535156 279.527344 C 503.570312 269.53125 514.054688 261.78125 525.972656 257.039062 C 535.667969 253.605469 545.839844 251.6875 556.121094 251.34375 C 564.3125 250.605469 565.746094 249.785156 568.902344 244.421875 C 572.625 237.359375 577.558594 231.007812 583.484375 225.660156 C 591.039062 219.050781 599.429688 213.460938 608.433594 209.027344 C 608.835938 208.796875 609.15625 208.4375 609.332031 208.007812 C 609.511719 207.578125 609.539062 207.101562 609.414062 206.652344 C 608.03125 203.128906 606.199219 199.796875 603.964844 196.738281 C 605.441406 196.246094 607.078125 195.796875 607.078125 194.320312 C 607.078125 190.226562 571.359375 138.527344 561.445312 128.777344 C 560.421875 127.753906 558.945312 126.402344 557.59375 126.484375 C 537.113281 127.632812 517.164062 146.96875 505.613281 163.84375 C 492.378906 163.351562 483.820312 162.164062 468.746094 168.515625 C 458.101562 173.03125 448.507812 179.699219 440.5625 188.09375 C 439.332031 189.363281 430.976562 198.214844 430.851562 198.910156 C 430.730469 199.605469 430.976562 199.605469 436.914062 206.242188 Z M 600.773438 205.09375 C 583.691406 208.003906 572.792969 222.21875 564.765625 237.660156 C 561.199219 244.542969 561.527344 244.871094 557.757812 244.789062 C 551.167969 244.417969 544.558594 244.664062 538.015625 245.527344 C 533.214844 246.242188 528.496094 247.421875 523.921875 249.050781 C 513.519531 252.738281 501.597656 264.535156 495.246094 273.300781 C 495.113281 273.480469 494.941406 273.628906 494.746094 273.742188 C 494.546875 273.847656 494.332031 273.914062 494.105469 273.933594 C 493.882812 273.953125 493.65625 273.925781 493.441406 273.851562 C 493.230469 273.777344 493.035156 273.660156 492.871094 273.503906 C 479.558594 259.78125 456.003906 235.695312 444.164062 221.847656 C 443.59375 221.234375 444.574219 220.332031 445.148438 220.988281 C 452.808594 229.183594 472.59375 248.804688 493.8125 270.144531 C 500.984375 261.011719 512.042969 249.949219 522.980469 246.101562 C 528.945312 243.972656 535.152344 242.597656 541.457031 242.003906 C 547.359375 241.554688 553.289062 241.554688 559.191406 242.003906 C 561.609375 239.21875 573.570312 207.59375 600.691406 204.070312 C 600.769531 204.128906 600.835938 204.203125 600.878906 204.292969 C 600.925781 204.378906 600.953125 204.476562 600.957031 204.574219 C 600.960938 204.671875 600.941406 204.769531 600.902344 204.859375 C 600.863281 204.949219 600.804688 205.03125 600.730469 205.09375 Z M 557.554688 129.804688 C 565.746094 135.539062 599.09375 184.898438 603.433594 193.542969 C 595.898438 195.929688 588.625 199.074219 581.722656 202.925781 C 575.1875 206.199219 569.460938 210.894531 564.972656 216.664062 C 560.476562 222.429688 557.328125 229.128906 555.753906 236.269531 C 541.046875 212.347656 520.523438 186.003906 506.882812 166.628906 C 507.699219 166.097656 530.722656 131.402344 557.554688 129.804688 Z M 469.644531 170.765625 C 484.597656 164.746094 492.871094 166.136719 505.242188 166.671875 C 517.53125 187.644531 539.613281 217.21875 554.15625 236.597656 C 540.730469 233.417969 526.609375 235.363281 514.542969 242.042969 C 507.292969 246.140625 498.441406 255.972656 492.996094 262.078125 C 485.128906 255.769531 439.742188 207.429688 432.449219 199.238281 C 443.675781 186.539062 454.039062 176.992188 469.644531 170.601562 Z M 394.679688 274.9375 C 393.667969 274.226562 392.472656 273.828125 391.234375 273.785156 C 390 273.742188 388.777344 274.054688 387.71875 274.691406 C 386.945312 275.039062 386.25 275.53125 385.667969 276.144531 C 385.085938 276.757812 384.628906 277.480469 384.328125 278.269531 C 384.027344 279.058594 383.882812 279.898438 383.90625 280.742188 C 383.925781 281.589844 384.117188 282.421875 384.460938 283.191406 C 384.804688 283.964844 385.296875 284.660156 385.910156 285.242188 C 386.523438 285.824219 387.246094 286.28125 388.035156 286.582031 C 388.824219 286.882812 389.667969 287.027344 390.511719 287.003906 C 391.355469 286.980469 392.1875 286.792969 392.960938 286.449219 C 394.195312 286.179688 395.316406 285.542969 396.179688 284.621094 C 397.039062 283.699219 397.601562 282.535156 397.789062 281.289062 C 397.976562 280.039062 397.777344 278.761719 397.222656 277.628906 C 396.667969 276.496094 395.78125 275.558594 394.679688 274.9375 Z M 391.976562 283.132812 C 389.109375 284.03125 387.390625 283.132812 386.691406 281.738281 C 385.382812 278.832031 387.019531 274.367188 391.28125 275.675781 C 394.269531 276.78125 396.6875 281.820312 391.976562 283.335938 Z M 602.984375 87.488281 C 604.171875 89.902344 609.703125 89.003906 612.117188 88.222656 C 613.386719 87.816406 614.207031 87.363281 614.332031 86.136719 C 614.699219 83.0625 615.109375 56.4375 613.714844 53.855469 C 613.574219 53.585938 613.351562 53.363281 613.082031 53.21875 C 612.8125 53.070312 612.503906 53.007812 612.199219 53.035156 C 607.828125 53.023438 603.480469 53.660156 599.296875 54.921875 C 597.617188 55.945312 601.507812 84.785156 602.984375 87.488281 Z M 600.15625 55.902344 C 603.941406 55.363281 607.769531 55.183594 611.585938 55.371094 C 611.832031 58.402344 611.175781 84.660156 611.136719 85.070312 C 609.40625 85.691406 607.558594 85.914062 605.726562 85.726562 C 605.441406 84.785156 604.949219 82.242188 604.335938 79.046875 C 602.53125 71.414062 601.136719 63.6875 600.15625 55.902344 Z M 390.707031 240.363281 C 391.101562 240.566406 391.535156 240.671875 391.976562 240.671875 C 392.417969 240.671875 392.855469 240.566406 393.246094 240.363281 C 394.828125 239.386719 396.085938 237.960938 396.851562 236.269531 C 396.957031 236 396.988281 235.703125 396.945312 235.417969 C 396.902344 235.128906 396.785156 234.859375 396.605469 234.628906 C 394.640625 232.296875 373.175781 207.429688 370.554688 208.988281 C 367.335938 211.070312 364.28125 213.398438 361.417969 215.949219 C 361.304688 216.054688 361.210938 216.179688 361.148438 216.320312 C 361.082031 216.460938 361.050781 216.613281 361.050781 216.769531 C 360.96875 218.898438 384.808594 237.988281 390.707031 240.363281 Z M 371.042969 210.050781 C 374.035156 212.222656 384.113281 224.675781 393.453125 235.695312 C 393.050781 236.328125 392.554688 236.894531 391.976562 237.375 C 382.15625 231.089844 372.78125 224.136719 363.917969 216.566406 C 366.140625 214.230469 368.519531 212.054688 371.042969 210.050781 Z M 435.398438 119.683594 C 436.300781 103.789062 445.558594 96.417969 455.226562 94.53125 C 452.480469 104.609375 452.933594 117.71875 462.886719 119.398438 C 467.636719 120.175781 469.972656 117.71875 473.414062 114.851562 C 488.121094 102.5625 476.242188 90.273438 459.648438 91.132812 C 465.835938 74.171875 480.132812 60.367188 499.097656 59.917969 C 499.273438 59.917969 499.4375 59.847656 499.5625 59.726562 C 499.683594 59.601562 499.753906 59.4375 499.753906 59.261719 C 499.753906 59.089844 499.683594 58.921875 499.5625 58.800781 C 499.4375 58.675781 499.273438 58.609375 499.097656 58.609375 C 478.617188 58.199219 462.519531 72.945312 456.167969 91.378906 C 445.230469 93.261719 434.375 101.457031 434.089844 119.4375 C 434.074219 119.523438 434.074219 119.613281 434.089844 119.699219 C 434.109375 119.785156 434.144531 119.867188 434.195312 119.9375 C 434.242188 120.011719 434.304688 120.074219 434.378906 120.121094 C 434.453125 120.167969 434.535156 120.203125 434.621094 120.21875 C 434.707031 120.234375 434.796875 120.234375 434.882812 120.214844 C 434.96875 120.195312 435.046875 120.160156 435.121094 120.113281 C 435.191406 120.0625 435.253906 120 435.300781 119.925781 C 435.351562 119.851562 435.382812 119.769531 435.398438 119.683594 Z M 458.707031 94.042969 C 464.8125 93.632812 473.90625 95.515625 476.40625 101.046875 C 477.839844 104.199219 476.40625 108.09375 471.324219 112.351562 C 469.945312 113.734375 468.371094 114.90625 466.65625 115.835938 C 460.511719 118.457031 453.710938 110.878906 458.707031 94.042969 Z M 470.421875 673.398438 C 466.464844 672.335938 462.335938 672.078125 458.277344 672.640625 C 454.21875 673.199219 450.3125 674.5625 446.789062 676.65625 C 443.265625 678.746094 440.199219 681.523438 437.761719 684.816406 C 435.328125 688.113281 433.578125 691.863281 432.613281 695.84375 C 430.792969 704.117188 432.335938 712.777344 436.898438 719.910156 C 441.460938 727.050781 448.671875 732.082031 456.945312 733.902344 C 465.21875 735.71875 473.878906 734.179688 481.015625 729.617188 C 488.152344 725.050781 493.183594 717.839844 495.003906 709.566406 C 495.78125 705.578125 495.757812 701.472656 494.941406 697.488281 C 494.125 693.507812 492.53125 689.726562 490.246094 686.363281 C 487.960938 683.003906 485.03125 680.125 481.628906 677.898438 C 478.230469 675.675781 474.417969 674.144531 470.421875 673.398438 Z M 483.082031 706.78125 C 481.4375 713.339844 477.503906 719.089844 471.988281 722.996094 C 466.472656 726.902344 459.742188 728.707031 453.015625 728.082031 C 446.835938 725.671875 441.707031 721.15625 438.53125 715.332031 C 435.355469 709.511719 434.332031 702.753906 435.644531 696.253906 C 437.179688 689.539062 441.078125 683.601562 446.628906 679.523438 C 452.179688 675.449219 459.011719 673.503906 465.875 674.050781 C 472.113281 676.628906 477.246094 681.324219 480.363281 687.3125 C 483.480469 693.300781 484.382812 700.195312 482.917969 706.78125 Z M 483.082031 706.78125 " fill-opacity="1" fill-rule="nonzero"/><g clip-path="url(#3cbca81e51)"><path fill="#000000" d="M 524.988281 685.070312 C 521.421875 683.839844 517.601562 683.546875 513.886719 684.210938 C 512.347656 680.683594 510.453125 677.320312 508.234375 674.175781 C 510.894531 671.757812 518.1875 665.039062 516.425781 661.886719 C 510.15625 654.386719 502.714844 647.953125 494.386719 642.835938 C 490.910156 640.890625 487.082031 639.652344 483.121094 639.191406 C 480.5 639.558594 474.273438 649.761719 472.882812 652.054688 C 471.980469 652.054688 468.785156 651.03125 468.539062 650.90625 C 468.539062 647.957031 467.679688 637.308594 465.015625 636.078125 C 462.039062 634.984375 458.945312 634.226562 455.800781 633.824219 C 452.890625 633.375 426.714844 638.167969 424.789062 641.691406 C 423.519531 644.066406 426.46875 653.039062 427.328125 655.535156 C 425.121094 656.753906 423 658.121094 420.980469 659.632812 C 416.882812 662.542969 417.988281 662.417969 417.253906 662.089844 C 416.359375 661.664062 415.40625 661.386719 414.425781 661.273438 C 411.152344 659.351562 407.316406 658.628906 403.570312 659.222656 C 399.800781 660.453125 390.914062 680.6875 389.476562 685.890625 C 389.007812 687.203125 388.882812 688.613281 389.109375 689.988281 C 390.09375 692.691406 396.648438 694.863281 399.390625 695.722656 C 398.632812 700.992188 398.632812 706.347656 399.390625 711.617188 C 395.785156 712.597656 388.289062 714.8125 388.699219 718.5 C 389.109375 722.183594 398.695312 746.519531 402.667969 748.441406 C 404.847656 749.660156 407.253906 750.410156 409.734375 750.644531 C 412.21875 750.875 414.722656 750.585938 417.089844 749.796875 C 418.421875 749.128906 419.707031 748.378906 420.9375 747.542969 C 422.578125 748.769531 424.296875 749.875 426.058594 750.941406 C 424.789062 754.097656 421.964844 761.140625 422.863281 764.335938 C 423.316406 766.015625 424.667969 766.550781 426.550781 767.246094 C 431.753906 769.128906 459.773438 775.847656 464.03125 775.109375 C 465.628906 774.863281 466.492188 773.183594 466.984375 771.585938 C 467.894531 767.953125 468.429688 764.234375 468.582031 760.488281 C 470.683594 760.28125 472.777344 759.964844 474.847656 759.542969 C 476.113281 761.769531 477.730469 763.777344 479.640625 765.484375 C 481.730469 766.957031 483.492188 766.222656 485.867188 764.707031 C 487.015625 766.179688 488.734375 768.230469 490.578125 768.433594 C 495.207031 768.964844 514.335938 750.941406 516.304688 747.253906 C 517.941406 744.183594 511.960938 738.695312 509.296875 736.277344 C 512.179688 731.941406 514.441406 727.226562 516.015625 722.265625 C 518.972656 722.710938 521.960938 722.878906 524.945312 722.757812 C 526.296875 722.757812 527.855469 722.265625 528.429688 720.996094 C 530.925781 715.304688 530.191406 693.714844 528.429688 688.226562 C 528.183594 686.628906 526.339844 685.5625 524.988281 685.070312 Z M 525.972656 688.839844 C 527.363281 694.164062 527.8125 714.277344 525.765625 719.480469 C 522.222656 719.828125 518.652344 719.664062 515.15625 718.988281 C 514.785156 718.925781 514.398438 719.003906 514.082031 719.210938 C 513.761719 719.414062 513.53125 719.730469 513.4375 720.097656 C 511.804688 725.632812 509.273438 730.867188 505.9375 735.582031 C 505.703125 735.890625 505.59375 736.285156 505.640625 736.675781 C 505.6875 737.0625 505.882812 737.421875 506.183594 737.667969 C 509.058594 739.945312 511.5 742.722656 513.394531 745.863281 C 511.347656 749.222656 495.328125 763.886719 490.90625 765.117188 C 490.25 765.117188 488.449219 762.65625 487.996094 762.003906 C 486.484375 759.730469 485.117188 757.359375 483.902344 754.914062 C 483.722656 754.558594 483.417969 754.28125 483.046875 754.136719 C 482.675781 753.992188 482.265625 753.992188 481.894531 754.136719 C 470.015625 758.601562 465.507812 755.980469 465.507812 758.929688 C 465.511719 763.347656 464.792969 767.734375 463.378906 771.914062 C 453.75 770.867188 444.269531 768.753906 435.113281 765.605469 C 435.554688 761.234375 436.777344 756.972656 438.71875 753.03125 C 439.945312 750.285156 435.03125 751.066406 425.855469 741.726562 C 425.558594 741.449219 425.171875 741.300781 424.769531 741.300781 C 424.367188 741.300781 423.980469 741.449219 423.683594 741.726562 C 419.585938 745.085938 414.261719 748.359375 413.195312 747.828125 C 411.109375 746.804688 401.480469 724.96875 400.90625 720.546875 C 403.820312 718.515625 407.128906 717.121094 410.617188 716.449219 C 410.988281 716.34375 411.308594 716.109375 411.519531 715.785156 C 411.730469 715.460938 411.816406 715.070312 411.761719 714.6875 C 410.757812 708.886719 410.757812 702.957031 411.761719 697.15625 C 411.824219 696.800781 411.75 696.429688 411.554688 696.128906 C 411.355469 695.824219 411.050781 695.605469 410.699219 695.515625 C 407.609375 694.707031 404.636719 693.511719 401.851562 691.953125 C 400.949219 691.296875 401.03125 691.339844 401.113281 690.644531 C 403.765625 681.078125 408.015625 672.035156 413.6875 663.894531 C 415.898438 663.277344 421.882812 667.660156 423.929688 669.21875 C 424.144531 669.425781 424.429688 669.542969 424.726562 669.542969 C 425.027344 669.542969 425.3125 669.425781 425.527344 669.21875 C 427.410156 667.265625 429.4375 665.457031 431.589844 663.8125 C 437.816406 659.101562 439.496094 659.714844 438.964844 658.078125 C 437.078125 653.964844 436.023438 649.527344 435.851562 645.007812 C 436.484375 644.480469 437.207031 644.066406 437.980469 643.78125 C 441.804688 642.269531 445.734375 641.035156 449.738281 640.09375 C 454.589844 638.742188 459.574219 637.929688 464.605469 637.675781 C 465.46875 638.042969 466.246094 641.773438 466.449219 642.917969 C 467.964844 651.113281 466.941406 652.792969 468.128906 652.914062 C 479.804688 654.0625 482.179688 657.296875 483 655.863281 C 485.269531 651.894531 487.917969 648.148438 490.90625 644.679688 C 491.765625 643.820312 491.726562 643.410156 494.304688 644.886719 C 502.015625 649.925781 508.921875 656.097656 514.789062 663.195312 C 515.402344 664.261719 510.078125 669.914062 506.183594 673.234375 C 504.832031 674.421875 506.757812 674.953125 510.28125 681.671875 C 513.804688 688.390625 512.984375 690.273438 514.871094 689.863281 C 518.503906 688.992188 522.242188 688.648438 525.972656 688.839844 Z M 1094.511719 346.542969 C 1085.925781 343.039062 1076.921875 340.65625 1067.722656 339.457031 C 1061.003906 338.390625 1053.097656 337.328125 1046.421875 336.46875 C 1052.851562 327.371094 1071.898438 304.351562 1075.09375 298.738281 C 1075.996094 297.222656 1074.277344 295.09375 1073.007812 293.824219 C 1065.878906 286.203125 1052.113281 283.335938 1041.546875 281.699219 C 1035.484375 280.714844 1010.167969 277.601562 1005.867188 279.648438 C 1000.703125 282.109375 962.527344 339.457031 961.378906 348.183594 C 961.378906 349.65625 961.871094 350.230469 963.304688 350.761719 C 969.324219 352.976562 996.484375 356.417969 1002.546875 357.851562 C 994.355469 372.1875 957.9375 420.648438 954.375 427.488281 C 953.511719 429.210938 954.046875 430.234375 955.070312 430.5625 C 958.757812 432.023438 962.550781 433.203125 966.417969 434.085938 C 967.890625 434.535156 971.128906 432.527344 975.839844 429.660156 C 996.976562 416.960938 1087.671875 357.070312 1094.636719 349.328125 C 1094.828125 349.148438 1094.976562 348.925781 1095.078125 348.683594 C 1095.175781 348.4375 1095.222656 348.171875 1095.210938 347.910156 C 1095.199219 347.644531 1095.128906 347.386719 1095.007812 347.152344 C 1094.890625 346.914062 1094.71875 346.707031 1094.511719 346.542969 Z M 1006.480469 395.699219 C 971.660156 418.683594 959.902344 425.398438 959.496094 425.6875 C 965.105469 417.125 999.96875 369.359375 1005.949219 357.933594 C 1006.050781 357.710938 1006.105469 357.46875 1006.101562 357.226562 C 1006.101562 356.980469 1006.046875 356.742188 1005.941406 356.519531 C 1005.835938 356.300781 1005.679688 356.105469 1005.492188 355.957031 C 1005.300781 355.800781 1005.078125 355.695312 1004.839844 355.636719 C 1000.746094 354.164062 970.921875 350.96875 963.878906 348.46875 C 964.777344 340.851562 1001.972656 283.253906 1006.480469 280.960938 C 1010.984375 278.667969 1054.695312 283.867188 1062.886719 289.726562 C 1058.585938 298.125 1034.828125 327.535156 1030.976562 334.378906 C 1030.199219 335.769531 1029.953125 337.121094 1031.46875 337.492188 C 1032.984375 337.859375 1071.488281 342.367188 1079.886719 345.109375 C 1069.648438 353.671875 1017.949219 388 1006.480469 395.539062 Z M 743.695312 145.246094 C 743.695312 145.613281 743.941406 146.066406 744.554688 148.441406 C 744.71875 148.957031 745.070312 149.390625 745.542969 149.648438 C 746.019531 149.910156 746.574219 149.976562 747.09375 149.835938 C 747.617188 149.683594 748.054688 149.328125 748.316406 148.851562 C 748.578125 148.375 748.640625 147.816406 748.488281 147.292969 C 748.078125 145.695312 747.710938 144.34375 747.464844 143.691406 C 747.222656 143.238281 746.828125 142.894531 746.347656 142.722656 C 745.867188 142.550781 745.34375 142.5625 744.875 142.757812 C 744.402344 142.949219 744.019531 143.3125 743.804688 143.773438 C 743.585938 144.234375 743.546875 144.757812 743.695312 145.246094 Z M 743.695312 145.246094 " fill-opacity="1" fill-rule="nonzero"/></g></svg>